<svg xmlns="http://www.w3.org/2000/svg" version="1.1" xmlns:xlink="http://www.w3.org/1999/xlink" xmlns:svgjs="http://svgjs.dev/svgjs" width="16" height="32" viewBox="0 0 1000 750"><rect width="1000" height="750" fill="#ffffff"></rect><g transform="matrix(0.834,0,0,0.834,82.49455466210975,177.81546251130598)"><svg viewBox="0 0 396 188" data-background-color="#fafafa" preserveAspectRatio="xMidYMid meet" height="474" width="1000" xmlns="http://www.w3.org/2000/svg" xmlns:xlink="http://www.w3.org/1999/xlink"><g id="tight-bounds" transform="matrix(1,0,0,1,0.23999562806298513,-0.22516405135517914)"><svg viewBox="0 0 395.5199999999999 188.45032810271036" height="188.45032810271036" width="395.5199999999999"><g><svg viewBox="0 0 395.5199999999999 188.45032810271036" height="188.45032810271036" width="395.5199999999999"><g><svg viewBox="0 0 395.5199999999999 188.45032810271036" height="188.45032810271036" width="395.5199999999999"><g><svg viewBox="0 0 395.5199999999999 188.45032810271036" height="188.45032810271036" width="395.5199999999999"><g><svg viewBox="0 0 395.5199999999999 188.45032810271036" height="188.45032810271036" width="395.5199999999999"><g transform="matrix(1,0,0,1,0,0)"><svg width="395.5199999999999" viewBox="-1.600000023841858 -33.400001525878906 70.0999984741211 33.400001525878906" height="188.45032810271036" data-palette-color="#130912"><path d="M23.5-1.2L23.5 0 9.65 0 9.65-1.2 14-1.65 14-14.35 2.2-31.75-1.6-32.3-1.6-33.4 11.9-33.4 11.9-32.35 8.05-31.8 17.95-16.95 26.5-31.05 22.75-32.2 22.75-33.4 32.9-33.4 32.9-32.2 29.1-31 19.15-14.75 19.15-1.65 23.5-1.2ZM55-32.2L55-33.4 65.15-33.4 65.15-32.25 61.05-30.9 48.1-18.6 64.5-1.75 68.5-1.4 68.5 0 54 0 54-1.4 57.55-1.7 44.1-16 44.1-1.65 48.45-1.2 48.45 0 34.6 0 34.6-1.2 38.95-1.65 38.95-31.75 34.6-32.2 34.6-33.4 48.45-33.4 48.45-32.2 44.1-31.75 44.1-17.45 58.55-31.1 55-32.2Z" opacity="1" transform="matrix(1,0,0,1,0,0)" fill="#000000" class="undefined-text-0" data-fill-palette-color="primary" id="text-0"></path></svg></g></svg></g></svg></g></svg></g><g></g></svg></g><defs></defs></svg><rect width="395.5199999999999" height="188.45032810271036" fill="none" stroke="none" visibility="hidden"></rect></g></svg></g></svg>